<mxfile host="app.diagrams.net" modified="2023-10-18T14:18:14.010Z" agent="Mozilla/5.0 (Macintosh; Intel Mac OS X 10_15_7) AppleWebKit/537.36 (KHTML, like Gecko) Chrome/117.0.0.0 Safari/537.36" etag="VR09-iE-JbLLvW-GkY8X" version="22.0.4" type="device">
  <diagram name="Page-1" id="nYqAakx0Y22jKsaiM2bd">
    <mxGraphModel dx="2074" dy="2267" grid="1" gridSize="10" guides="1" tooltips="1" connect="1" arrows="1" fold="1" page="1" pageScale="1" pageWidth="850" pageHeight="1100" math="0" shadow="0">
      <root>
        <mxCell id="0" />
        <mxCell id="1" parent="0" />
        <mxCell id="sWI6t_ZAFfcBNHLe3j9c-2" value="&lt;b&gt;Google &lt;/b&gt;Cloud Platform" style="fillColor=#F6F6F6;strokeColor=none;shadow=0;gradientColor=none;fontSize=14;align=left;spacing=10;fontColor=#717171;9E9E9E;verticalAlign=top;spacingTop=-4;fontStyle=0;spacingLeft=40;html=1;whiteSpace=wrap;container=0;" parent="1" vertex="1">
          <mxGeometry x="40" y="-120" width="780" height="600" as="geometry" />
        </mxCell>
        <mxCell id="sWI6t_ZAFfcBNHLe3j9c-37" value="" style="edgeStyle=orthogonalEdgeStyle;fontSize=12;html=1;endArrow=blockThin;endFill=1;rounded=0;strokeWidth=2;endSize=4;startSize=4;dashed=0;strokeColor=#4284F3;exitX=1;exitY=0.25;exitDx=0;exitDy=0;entryX=0;entryY=0.25;entryDx=0;entryDy=0;startArrow=classic;startFill=1;" parent="1" edge="1">
          <mxGeometry width="100" relative="1" as="geometry">
            <mxPoint x="385" y="117" as="sourcePoint" />
            <mxPoint x="483" y="117" as="targetPoint" />
          </mxGeometry>
        </mxCell>
        <mxCell id="sWI6t_ZAFfcBNHLe3j9c-3" value="" style="shape=mxgraph.gcp2.google_cloud_platform;fillColor=#F6F6F6;strokeColor=none;shadow=0;gradientColor=none;" parent="1" vertex="1">
          <mxGeometry x="60" y="-110" width="23" height="20" as="geometry">
            <mxPoint x="20" y="10" as="offset" />
          </mxGeometry>
        </mxCell>
        <mxCell id="sWI6t_ZAFfcBNHLe3j9c-4" value="" style="sketch=0;points=[[0,0,0],[0.25,0,0],[0.5,0,0],[0.75,0,0],[1,0,0],[1,0.25,0],[1,0.5,0],[1,0.75,0],[1,1,0],[0.75,1,0],[0.5,1,0],[0.25,1,0],[0,1,0],[0,0.75,0],[0,0.5,0],[0,0.25,0]];rounded=1;absoluteArcSize=1;arcSize=2;html=1;strokeColor=none;gradientColor=none;shadow=0;dashed=0;fontSize=12;fontColor=#9E9E9E;align=left;verticalAlign=top;spacing=10;spacingTop=-4;whiteSpace=wrap;fillColor=#F3E5F5;" parent="1" vertex="1">
          <mxGeometry x="50.25974025974026" y="-80" width="759.2207792207793" height="540" as="geometry" />
        </mxCell>
        <mxCell id="sWI6t_ZAFfcBNHLe3j9c-5" value="" style="sketch=0;points=[[0,0,0],[0.25,0,0],[0.5,0,0],[0.75,0,0],[1,0,0],[1,0.25,0],[1,0.5,0],[1,0.75,0],[1,1,0],[0.75,1,0],[0.5,1,0],[0.25,1,0],[0,1,0],[0,0.75,0],[0,0.5,0],[0,0.25,0]];rounded=1;absoluteArcSize=1;arcSize=2;html=1;strokeColor=none;gradientColor=none;shadow=0;dashed=0;fontSize=12;fontColor=#9E9E9E;align=left;verticalAlign=top;spacing=10;spacingTop=-4;whiteSpace=wrap;fillColor=#F1F8E9;" parent="1" vertex="1">
          <mxGeometry x="60.519999999999996" y="-30" width="359.48" height="480" as="geometry" />
        </mxCell>
        <mxCell id="sWI6t_ZAFfcBNHLe3j9c-10" value="" style="sketch=0;points=[[0,0,0],[0.25,0,0],[0.5,0,0],[0.75,0,0],[1,0,0],[1,0.25,0],[1,0.5,0],[1,0.75,0],[1,1,0],[0.75,1,0],[0.5,1,0],[0.25,1,0],[0,1,0],[0,0.75,0],[0,0.5,0],[0,0.25,0]];rounded=1;absoluteArcSize=1;arcSize=2;html=1;strokeColor=none;gradientColor=none;shadow=0;dashed=0;fontSize=12;fontColor=#9E9E9E;align=left;verticalAlign=top;spacing=10;spacingTop=-4;whiteSpace=wrap;fillColor=#F1F8E9;" parent="1" vertex="1">
          <mxGeometry x="429.87" y="-30" width="370.13" height="480" as="geometry" />
        </mxCell>
        <mxCell id="sWI6t_ZAFfcBNHLe3j9c-11" value="Folder: crux-poc" style="fillColor=#4DA1F5;strokeColor=none;shadow=1;gradientColor=none;fontSize=14;align=left;spacingLeft=50;fontColor=#ffffff;whiteSpace=wrap;html=1;" parent="1" vertex="1">
          <mxGeometry x="330" y="-70" width="190" height="20" as="geometry" />
        </mxCell>
        <mxCell id="sWI6t_ZAFfcBNHLe3j9c-13" value="Folder: on-prem" style="fillColor=#4DA1F5;strokeColor=none;shadow=1;gradientColor=none;fontSize=14;align=left;spacingLeft=50;fontColor=#ffffff;whiteSpace=wrap;html=1;" parent="1" vertex="1">
          <mxGeometry x="519.9300000000001" y="-20" width="190" height="20" as="geometry" />
        </mxCell>
        <mxCell id="sWI6t_ZAFfcBNHLe3j9c-12" value="Folder: gcp" style="fillColor=#4DA1F5;strokeColor=none;shadow=1;gradientColor=none;fontSize=14;align=left;spacingLeft=50;fontColor=#ffffff;whiteSpace=wrap;html=1;" parent="1" vertex="1">
          <mxGeometry x="145.26" y="-20" width="190" height="20" as="geometry" />
        </mxCell>
        <mxCell id="sWI6t_ZAFfcBNHLe3j9c-14" value="" style="sketch=0;points=[[0,0,0],[0.25,0,0],[0.5,0,0],[0.75,0,0],[1,0,0],[1,0.25,0],[1,0.5,0],[1,0.75,0],[1,1,0],[0.75,1,0],[0.5,1,0],[0.25,1,0],[0,1,0],[0,0.75,0],[0,0.5,0],[0,0.25,0]];rounded=1;absoluteArcSize=1;arcSize=2;html=1;strokeColor=none;gradientColor=none;shadow=0;dashed=0;fontSize=12;fontColor=#9E9E9E;align=left;verticalAlign=top;spacing=10;spacingTop=-4;whiteSpace=wrap;fillColor=#FFEBEE;" parent="1" vertex="1">
          <mxGeometry x="70.52" y="20" width="339.48" height="130" as="geometry" />
        </mxCell>
        <mxCell id="sWI6t_ZAFfcBNHLe3j9c-15" value="" style="sketch=0;points=[[0,0,0],[0.25,0,0],[0.5,0,0],[0.75,0,0],[1,0,0],[1,0.25,0],[1,0.5,0],[1,0.75,0],[1,1,0],[0.75,1,0],[0.5,1,0],[0.25,1,0],[0,1,0],[0,0.75,0],[0,0.5,0],[0,0.25,0]];rounded=1;absoluteArcSize=1;arcSize=2;html=1;strokeColor=none;gradientColor=none;shadow=0;dashed=0;fontSize=12;fontColor=#9E9E9E;align=left;verticalAlign=top;spacing=10;spacingTop=-4;whiteSpace=wrap;fillColor=#FFEBEE;" parent="1" vertex="1">
          <mxGeometry x="450" y="20" width="339.48" height="130" as="geometry" />
        </mxCell>
        <mxCell id="sWI6t_ZAFfcBNHLe3j9c-17" value="Project: net-gcp" style="fillColor=#4DA1F5;strokeColor=none;shadow=1;gradientColor=none;fontSize=14;align=left;spacingLeft=50;fontColor=#ffffff;whiteSpace=wrap;html=1;" parent="1" vertex="1">
          <mxGeometry x="145.26" y="30" width="190" height="20" as="geometry" />
        </mxCell>
        <mxCell id="sWI6t_ZAFfcBNHLe3j9c-18" value="Project: net-on-prem" style="fillColor=#4DA1F5;strokeColor=none;shadow=1;gradientColor=none;fontSize=14;align=left;spacingLeft=50;fontColor=#ffffff;whiteSpace=wrap;html=1;" parent="1" vertex="1">
          <mxGeometry x="520" y="30" width="190" height="20" as="geometry" />
        </mxCell>
        <mxCell id="sWI6t_ZAFfcBNHLe3j9c-19" value="" style="sketch=0;points=[[0,0,0],[0.25,0,0],[0.5,0,0],[0.75,0,0],[1,0,0],[1,0.25,0],[1,0.5,0],[1,0.75,0],[1,1,0],[0.75,1,0],[0.5,1,0],[0.25,1,0],[0,1,0],[0,0.75,0],[0,0.5,0],[0,0.25,0]];rounded=1;absoluteArcSize=1;arcSize=2;html=1;strokeColor=none;gradientColor=none;shadow=0;dashed=0;fontSize=12;fontColor=#9E9E9E;align=left;verticalAlign=top;spacing=10;spacingTop=-4;whiteSpace=wrap;fillColor=#FFF8E1;" parent="1" vertex="1">
          <mxGeometry x="70.52" y="175" width="339.48" height="235" as="geometry" />
        </mxCell>
        <mxCell id="sWI6t_ZAFfcBNHLe3j9c-20" value="" style="sketch=0;points=[[0,0,0],[0.25,0,0],[0.5,0,0],[0.75,0,0],[1,0,0],[1,0.25,0],[1,0.5,0],[1,0.75,0],[1,1,0],[0.75,1,0],[0.5,1,0],[0.25,1,0],[0,1,0],[0,0.75,0],[0,0.5,0],[0,0.25,0]];rounded=1;absoluteArcSize=1;arcSize=2;html=1;strokeColor=none;gradientColor=none;shadow=0;dashed=0;fontSize=12;fontColor=#9E9E9E;align=left;verticalAlign=top;spacing=10;spacingTop=-4;whiteSpace=wrap;fillColor=#FFF8E1;" parent="1" vertex="1">
          <mxGeometry x="450" y="175" width="339.48" height="235" as="geometry" />
        </mxCell>
        <mxCell id="sWI6t_ZAFfcBNHLe3j9c-21" value="Project: svc-gcp" style="fillColor=#4DA1F5;strokeColor=none;shadow=1;gradientColor=none;fontSize=14;align=left;spacingLeft=50;fontColor=#ffffff;whiteSpace=wrap;html=1;" parent="1" vertex="1">
          <mxGeometry x="145.26" y="190" width="190" height="20" as="geometry" />
        </mxCell>
        <mxCell id="sWI6t_ZAFfcBNHLe3j9c-22" value="Project: svc-on-prem" style="fillColor=#4DA1F5;strokeColor=none;shadow=1;gradientColor=none;fontSize=14;align=left;spacingLeft=50;fontColor=#ffffff;whiteSpace=wrap;html=1;" parent="1" vertex="1">
          <mxGeometry x="519.9300000000001" y="190" width="190" height="20" as="geometry" />
        </mxCell>
      </root>
    </mxGraphModel>
  </diagram>
</mxfile>
